PathFileType	4	(X/Y/Z)	/Users/niels/Desktop/University/Third Semester/Perception and Action/Exam/Gymnastics Motion Tracking/Code for Gym Tracking/Analyzed Data/Webcam_Backflip/id5_1_trajectory_Sports2D/id5_1_trajectory_Sports2D_px_person00.trc
DataRate	CameraRate	NumFrames	NumMarkers	Units	OrigDataRate	OrigDataStartFrame	OrigNumFrames
29.81132075471698	29.81132075471698	12	22	m	29.81132075471698	39	159
Frame#	Time	Hip			RHip			RKnee			RAnkle			RBigToe			RSmallToe			RHeel			LHip			LKnee			LAnkle			LBigToe			LSmallToe			LHeel			Neck			Head			Nose			RShoulder			RElbow			RWrist			LShoulder			LElbow			LWrist		
		X1	Y1	Z1	X2	Y2	Z2	X3	Y3	Z3	X4	Y4	Z4	X5	Y5	Z5	X6	Y6	Z6	X7	Y7	Z7	X8	Y8	Z8	X9	Y9	Z9	X10	Y10	Z10	X11	Y11	Z11	X12	Y12	Z12	X13	Y13	Z13	X14	Y14	Z14	X15	Y15	Z15	X16	Y16	Z16	X17	Y17	Z17	X18	Y18	Z18	X19	Y19	Z19	X20	Y20	Z20	X21	Y21	Z21	X22	Y22	Z22
39	1.3082278481012657	0.9431184980155172	-0.5260618067365261	0.0	0.9432039583870934	-0.5266793203633626	0.0	0.9935550657515883	-0.6200257988713388	0.0	0.9730742364437484	-0.7329898149134036	0.0	0.9887023726931603	-0.7672682594326712	0.0	0.981722291967796	-0.7683559456664977	0.0	0.9625696191935043	-0.7459577616550765	0.0	0.9434467779284845	-0.5268824526779526	0.0	0.9899209568127816	-0.6183029161632816	0.0	0.971682059611264	-0.7291654701176262	0.0	0.9898682209992148	-0.7617148434124156	0.0	0.9872114462528916	-0.7611938337571837	0.0	0.9589389334210395	-0.7406929701214454	0.0	0.8802425623982545	-0.40227046780396764	0.0	0.8347823319008533	-0.34348813238398573	0.0	0.8712432429228871	-0.3626657941217502	0.0	0.8816336047053601	-0.4041995288180702	0.0	0.8789396888116194	-0.3504443461279906	0.0	0.8587900680171856	-0.32460476453258086	0.0	0.8775947009357072	-0.40705175284697526	0.0	0.8798677269195764	-0.36363701412818084	0.0	0.8579912454268808	-0.3384234721188614	0.0
40	1.3417721518987342	0.9368978695817846	-0.49540522269164045	0.0	0.937119890436225	-0.49605426122302415	0.0	1.005260428342468	-0.5678846152985174	0.0	0.9836231761514981	-0.6817128203333942	0.0	1.000053790769207	-0.7192537914668546	0.0	0.9936277409547593	-0.7199007763588507	0.0	0.9726276137015781	-0.6945886752837142	0.0	0.9375218484455904	-0.496300740197825	0.0	1.0011371893764682	-0.5658367777474409	0.0	0.9824411231090688	-0.6781421493377833	0.0	1.0017194020876925	-0.7143100532374174	0.0	0.9989726477833949	-0.7138980137944869	0.0	0.9694560588355925	-0.6907527168567216	0.0	0.8632560586355842	-0.3782921282430092	0.0	0.811534967202772	-0.3246314870999098	0.0	0.850614103017861	-0.33977577629347766	0.0	0.8631620144171352	-0.3810746551315227	0.0	0.86259465245116	-0.3383255288460827	0.0	0.8512502295323557	-0.31646068072422795	0.0	0.8622699301209847	-0.38253097714029755	0.0	0.867006813301819	-0.3472575536119068	0.0	0.851437061716899	-0.32503830863945105	0.0
41	1.3753164556962025	0.9297528743638134	-0.4694845723624797	0.0	0.9303210096446971	-0.47002807389214535	0.0	1.0138647054113124	-0.5119396491041407	0.0	0.9965403263953058	-0.6247311270041401	0.0	1.0163533468289734	-0.661060245678039	0.0	1.0107671008726424	-0.6619827485193837	0.0	0.9856852927294879	-0.6376546226994639	0.0	0.9302843666402214	-0.47026887148554125	0.0	1.0090878918206296	-0.5097662248155224	0.0	0.995324234536483	-0.6212436320769394	0.0	1.0175919675175953	-0.6564100764083826	0.0	1.0146977658422567	-0.6565471240088777	0.0	0.982382825930249	-0.6352188438162094	0.0	0.8461346411544076	-0.3593654324382462	0.0	0.7900754022501499	-0.31154970873359306	0.0	0.8310549084483558	-0.3215100686038746	0.0	0.845649564832436	-0.36217348903876667	0.0	0.8563566396143125	-0.3345092365326997	0.0	0.8567533115725795	-0.31060477775687956	0.0	0.8466849076205856	-0.3632923515509337	0.0	0.8609728794931137	-0.33823779307954144	0.0	0.8560025533806158	-0.3145381053790842	0.0
42	1.4088607594936708	0.9233081169034525	-0.44891113405637456	0.0	0.9244959962607113	-0.44908282215595124	0.0	1.0151481158075413	-0.45537803091067985	0.0	1.010421969115964	-0.5641267253465273	0.0	1.0354636432869673	-0.5935617366088038	0.0	1.031164495387349	-0.5956581414708205	0.0	1.0010334597583064	-0.5775327010521563	0.0	0.9232379782236346	-0.44942501013078223	0.0	1.0094986111399553	-0.4537383748230341	0.0	1.0087407951325977	-0.5604445759172698	0.0	1.0346731925600048	-0.5892222269012031	0.0	1.0322290018484799	-0.5901854655318267	0.0	0.9972003200195515	-0.5761011654592884	0.0	0.8301623702440917	-0.3468063670256441	0.0	0.7713379741484243	-0.3055841054184437	0.0	0.8131172061047472	-0.30942506015375276	0.0	0.8305861533136328	-0.34847765010632387	0.0	0.8582671572305757	-0.3356022082772054	0.0	0.8707832501729941	-0.3046927673247629	0.0	0.8323188189486882	-0.3509067255745022	0.0	0.8601396986680704	-0.3352866182959875	0.0	0.8676792001822892	-0.30614553926430016	0.0
43	1.4424050632911392	0.9190465399622653	-0.43271481020053143	0.0	0.9210919154663465	-0.4322652103492824	0.0	1.006659645118232	-0.40191989037162307	0.0	1.0226112942853456	-0.5019240828041531	0.0	1.0529431490349348	-0.5191891106215899	0.0	1.0504803558754994	-0.5231773793771092	0.0	1.0162759402950716	-0.516094824652701	0.0	0.9179293556246059	-0.4329644603308641	0.0	0.9999511105497152	-0.4018585969328989	0.0	1.0200131276361686	-0.49795125554812536	0.0	1.0484414985634438	-0.5157791589482741	0.0	1.0476856339001015	-0.5174909743875193	0.0	1.0119803026622756	-0.5151200598809419	0.0	0.8166330518189563	-0.3412394461826933	0.0	0.7561303321260912	-0.3076288730424954	0.0	0.7974229797363468	-0.3047130053756645	0.0	0.8190678450057755	-0.3405944456668301	0.0	0.8645657266252847	-0.33708304112930304	0.0	0.8873603125394994	-0.29745362407887116	0.0	0.8205767564465839	-0.34603187283965947	0.0	0.8614599515576661	-0.33566562597329513	0.0	0.8808346355605036	-0.29944034337964737	0.0
44	1.4759493670886075	0.9177825273417963	-0.4190060212483842	0.0	0.9207488006449377	-0.41775347886542663	0.0	0.988396206361796	-0.35535220513697824	0.0	1.0295959688656664	-0.440377280126705	0.0	1.0630870948432984	-0.44199949564615687	0.0	1.062975153142374	-0.4480684683846719	0.0	1.0275030440436463	-0.4549847670623955	0.0	0.9153242466577317	-0.41922973875254305	0.0	0.9807110115134567	-0.35781778342306536	0.0	1.0257862114564689	-0.43645372658404347	0.0	1.0538095066297484	-0.44065453813985117	0.0	1.0561765502694744	-0.44268244377364957	0.0	1.0233022011224444	-0.4541335001289456	0.0	0.8065240535693058	-0.34270585453661684	0.0	0.745241033362551	-0.3182048362593382	0.0	0.7847043709101271	-0.3081550543650979	0.0	0.8115772979130162	-0.3387706829206519	0.0	0.8716337802023296	-0.33626250376612843	0.0	0.9008268534070414	-0.28913881022404214	0.0	0.8123352891366997	-0.34840357738469924	0.0	0.8622891193006154	-0.3372388501598763	0.0	0.8904883765790209	-0.29433272900218566	0.0
45	1.5094936708860758	0.9193216581108778	-0.40583919561241977	0.0	0.9230280374833514	-0.4035979426635578	0.0	0.9623760080002071	-0.31876413172883283	0.0	1.0280917886401182	-0.3822785166234862	0.0	1.0609086271875423	-0.36757868796710846	0.0	1.0634410495189315	-0.3752407737223975	0.0	1.030509062869312	-0.39625752772778916	0.0	0.915501228935981	-0.40638910079519164	0.0	0.9543629247350439	-0.32409331233917327	0.0	1.0231208642878211	-0.3791531779506777	0.0	1.0470080837286964	-0.3694251086204662	0.0	1.053537122616352	-0.37118409947744846	0.0	1.0272272272034513	-0.3955999683131805	0.0	0.8004444010382785	-0.35076788538073117	0.0	0.7396270970302876	-0.33733960952214065	0.0	0.7756976232817692	-0.3200496345145521	0.0	0.8081632356354617	-0.3429070516974469	0.0	0.8770035649363771	-0.3333448167854489	0.0	0.9072755098629195	-0.28137411093685577	0.0	0.8080414748870026	-0.35700251084753043	0.0	0.8615662645847504	-0.3396561777965238	0.0	0.8939959810767901	-0.29163315199158435	0.0
46	1.5430379746835443	0.9224222140376065	-0.39188540490396206	0.0	0.9264122862979709	-0.3884780973913108	0.0	0.9316129366626714	-0.2940200378065501	0.0	1.0161583532563208	-0.33088168609827073	0.0	1.0437625406429842	-0.30213286888219715	0.0	1.048833605824983	-0.3103725708536618	0.0	1.0223811569987589	-0.34280770936929245	0.0	0.9176095761684542	-0.3930055101612745	0.0	0.9246409436874944	-0.30177841071866734	0.0	1.0105256891911596	-0.32941163489595965	0.0	1.02711856030442	-0.3076926298553478	0.0	1.037660695272566	-0.30867003409644367	0.0	1.0207774828188068	-0.3426886674557318	0.0	0.7989586089734387	-0.36460192164680943	0.0	0.7405502010195795	-0.36422685231623214	0.0	0.7712702070335515	-0.3400991927285182	0.0	0.8088442708733811	-0.3525406654095157	0.0	0.8795206174397704	-0.33012258180815035	0.0	0.905226045643181	-0.2764759611442715	0.0	0.8080950936982765	-0.3704224402922689	0.0	0.8599939197311973	-0.34363126004368494	0.0	0.891443560866858	-0.29339010448102404	0.0
47	1.5765822784810126	0.9250856039474341	-0.37680355710279223	0.0	0.9286017002656145	-0.3722502012349058	0.0	0.8991992961416626	-0.2817810185652997	0.0	0.993614804122204	-0.28943927274033615	0.0	1.0117726686749724	-0.2511742261292683	0.0	1.0188366769516528	-0.2587613548430403	0.0	1.0023456143813776	-0.2980663355398493	0.0	0.9200678694181698	-0.37857192329557837	0.0	0.8952647540274944	-0.2909377572875076	0.0	0.9882218019702029	-0.2901328648666537	0.0	0.9961655760998949	-0.25998231201283317	0.0	1.0088224822924003	-0.2598838829171577	0.0	1.0029098012935376	-0.2987440216315209	0.0	0.8028787955370204	-0.38292708405287973	0.0	0.7494580910894498	-0.3967729571509362	0.0	0.7726524043954897	-0.36716961882872284	0.0	0.813803025759519	-0.3667019422235051	0.0	0.8790155575598361	-0.32846786476609685	0.0	0.8955545891750533	-0.2766829829597858	0.0	0.8130971965192884	-0.3871393271507967	0.0	0.8595014063313482	-0.3496399035128026	0.0	0.8853276585379819	-0.3020917866979706	0.0
48	1.610126582278481	0.925152980976119	-0.36134734515570144	0.0	0.9272699891104451	-0.35605269437939757	0.0	0.8679974284763905	-0.28184381485238014	0.0	0.9617413109780429	-0.26066595832159006	0.0	0.967484572842668	-0.21878085405007955	0.0	0.9756497093402029	-0.22457947617816051	0.0	0.9714851271531517	-0.2651356701107843	0.0	0.9210515452210251	-0.3638285996229035	0.0	0.8692495970651365	-0.2910299427505771	0.0	0.957747050144472	-0.2632948926617317	0.0	0.9572273314353182	-0.22919528833648967	0.0	0.9694114321030987	-0.22805096930121768	0.0	0.9744581198817375	-0.2664027756334643	0.0	0.8130200458190795	-0.403737959929988	0.0	0.7673989877935958	-0.43152950280968083	0.0	0.781184464974185	-0.3989084550466305	0.0	0.8231552122846143	-0.383785584780586	0.0	0.8758886645079113	-0.3296260435459461	0.0	0.8809028493276942	-0.2835388992944959	0.0	0.8237579989790076	-0.4054187537782682	0.0	0.8622692916543622	-0.3573451072012307	0.0	0.8797139725221217	-0.3191205978359776	0.0
49	1.6436708860759492	0.9210553681269013	-0.3471153119375815	0.0	0.9210303423447318	-0.3418912253554989	0.0	0.8407196642915604	-0.2932936820392324	0.0	0.9227900644603632	-0.24656911979949925	0.0	0.9153298241305077	-0.20755247985756334	0.0	0.9234680733543504	-0.2107494594173761	0.0	0.932031121847707	-0.24636472706233856	0.0	0.9190440743173479	-0.35039015818743546	0.0	0.8485671275061905	-0.3009412295934978	0.0	0.9213860770997266	-0.25015649842160137	0.0	0.9126472013257388	-0.21694152505948694	0.0	0.9231984074749962	-0.21516165859478703	0.0	0.9374507249070234	-0.24752217331987927	0.0	0.829470079668865	-0.4242913670773949	0.0	0.794159871863777	-0.4642904906580412	0.0	0.7976142572173219	-0.43167530781476054	0.0	0.8365353930324033	-0.40169374679217634	0.0	0.8709158825771468	-0.33412121835267355	0.0	0.8645732679598596	-0.29765974367823267	0.0	0.8402507858865951	-0.42307703144935	0.0	0.8697072374118638	-0.36587436433101583	0.0	0.8786660369197374	-0.34361758671731196	0.0
50	1.6772151898734176	0.9123408566488065	-0.3359532307119024	0.0	0.9098991281148214	-0.3318457151050298	0.0	0.819716513928762	-0.31436236547942137	0.0	0.8797002988423152	-0.24862762817407585	0.0	0.8608115427884064	-0.21884485792054945	0.0	0.8676906198045253	-0.21901727203961877	0.0	0.8869564769505169	-0.24363030813739717	0.0	0.9132428405784386	-0.33986841528599304	0.0	0.833890053627018	-0.31884614342796025	0.0	0.881836248801713	-0.2518624163718163	0.0	0.8646340144183448	-0.2244271070551613	0.0	0.8742814448108652	-0.22266919381606304	0.0	0.8945734680051103	-0.24392777705167495	0.0	0.8509654231269083	-0.44168294982107037	0.0	0.827758842694075	-0.491102612546808	0.0	0.821455411081953	-0.46120710228605716	0.0	0.8529277100765547	-0.4182031174808801	0.0	0.8651158480913649	-0.34199908891613023	0.0	0.8492585617930071	-0.3187886645422949	0.0	0.8614168930150582	-0.4376103534654932	0.0	0.8818812845551768	-0.3743227240956102	0.0	0.8848263547218777	-0.3723732008919555	0.0
